<svg width="32" height="32" viewBox="0 0 32 32" fill="none" xmlns="http://www.w3.org/2000/svg">
<rect width="32" height="32" fill="white"/>
<path d="M24.2255 26.9191V13.0442L26.1994 14.2167V25.7465L24.2255 26.9191Z" fill="#3A2DB3"/>
<path d="M27.7785 24.574V14.9983L29.7524 16.1709V23.4014L27.7785 24.574Z" fill="#3A2DB3"/>
<path d="M29.7959 14.412L17.6587 7.47455L19.6713 6.36841L29.7572 12.1333L29.7959 14.412Z" fill="#3A2DB3"/>
<path d="M29.7752 10.1933L21.3989 5.40543L23.4115 4.2993L29.7365 7.91459L29.7752 10.1933Z" fill="#3A2DB3"/>
<path d="M8.04722 5.08093V18.9558L6.0733 17.7833V6.25346L8.04722 5.08093Z" fill="#3A2DB3"/>
<path d="M4.494 7.42603V17.0017L2.52008 15.8291V8.59855L4.494 7.42603Z" fill="#3A2DB3"/>
<path d="M2.47689 17.588L14.6141 24.5255L12.6014 25.6316L2.51561 19.8667L2.47689 17.588Z" fill="#3A2DB3"/>
<path d="M2.49752 21.8067L10.8739 26.5946L8.86125 27.7007L2.53624 24.0854L2.49752 21.8067Z" fill="#3A2DB3"/>
<path d="M21.7597 3.56618L9.62247 10.5036L9.66119 8.22497L19.747 2.46004L21.7597 3.56618Z" fill="#3A2DB3"/>
<path d="M17.9318 1.6924L9.55541 6.48022L9.59413 4.20156L15.9191 0.586264L17.9318 1.6924Z" fill="#3A2DB3"/>
<path d="M10.412 28.4338L22.5492 21.4964L22.5105 23.775L12.4247 29.54L10.412 28.4338Z" fill="#3A2DB3"/>
<path d="M14.2399 30.3076L22.6163 25.5198L22.5776 27.7984L16.2525 31.4137L14.2399 30.3076Z" fill="#3A2DB3"/>
</svg>
